<?xml version="1.0" encoding="UTF-8"?>
<!-- Generated by Pixelmator Pro 3.2.3 -->
<svg width="302" height="42" viewBox="0 0 302 42" xmlns="http://www.w3.org/2000/svg" xmlns:xlink="http://www.w3.org/1999/xlink">
    <g id="Logo">
        <path id="readingmood" fill="#000000" fill-rule="evenodd" stroke="none" d="M 289.799347 32.599827 C 292.149109 32.599827 294.185608 31.855724 295.477997 30.054214 L 295.869629 32.208183 L 301 32.208183 L 301 3.619038 L 295.282166 3.619038 L 295.282166 14.545568 C 294.028961 12.900721 292.031616 12.234938 289.799347 12.234938 C 284.081482 12.234938 280.791779 16.699556 280.791779 22.417381 C 280.791779 28.096046 284.042328 32.599827 289.799347 32.599827 Z M 286.66626 22.417381 C 286.66626 19.206009 288.428589 17.052019 291.209198 17.052019 C 293.911469 17.052019 295.673798 19.049347 295.673798 22.417381 C 295.673798 25.785416 293.911469 27.782745 291.209198 27.782745 C 288.428589 27.782745 286.66626 25.628757 286.66626 22.417381 Z M 268.181244 32.599827 C 274.329834 32.599827 278.442017 28.448509 278.442017 22.339062 C 278.442017 16.229595 274.329834 12.234938 268.181244 12.234938 C 262.032593 12.234938 257.920471 16.229595 257.920471 22.339062 C 257.920471 28.448509 262.032593 32.599827 268.181244 32.599827 Z M 263.794952 22.339062 C 263.794952 19.049347 265.439789 17.169519 268.181244 17.169519 C 270.922668 17.169519 272.567505 19.049347 272.567505 22.339062 C 272.567505 25.628757 270.922668 27.665245 268.181244 27.665245 C 265.439789 27.665245 263.794952 25.628757 263.794952 22.339062 Z M 245.309906 32.599827 C 251.458527 32.599827 255.570663 28.448509 255.570663 22.339062 C 255.570663 16.229595 251.458527 12.234938 245.309906 12.234938 C 239.161301 12.234938 235.049149 16.229595 235.049149 22.339062 C 235.049149 28.448509 239.161301 32.599827 245.309906 32.599827 Z M 240.92363 22.339062 C 240.92363 19.049347 242.568497 17.169519 245.309906 17.169519 C 248.051346 17.169519 249.696182 19.049347 249.696182 22.339062 C 249.696182 25.628757 248.051346 27.665245 245.309906 27.665245 C 242.568497 27.665245 240.92363 25.628757 240.92363 22.339062 Z M 201.877914 12.626579 L 201.877914 32.208183 L 207.595734 32.208183 L 207.595734 21.124996 C 207.595734 18.501064 208.888123 17.052019 210.807129 17.052019 C 212.647797 17.052019 213.7052 18.501064 213.7052 21.124996 L 213.7052 32.208183 L 219.423019 32.208183 L 219.423019 21.124996 C 219.423019 18.501064 220.715424 17.052019 222.634415 17.052019 C 224.475082 17.052019 225.532501 18.501064 225.532501 21.124996 L 225.532501 32.208183 L 231.25032 32.208183 L 231.25032 20.772533 C 231.25032 16.738718 229.252991 12.234938 224.592575 12.234938 C 222.086121 12.234938 219.736328 13.527325 218.248123 15.642153 C 217.229874 13.683985 215.428375 12.234938 212.843597 12.234938 C 210.72879 12.234938 208.731461 13.214022 207.399918 15.093868 L 207.008286 12.626579 Z M 176.030197 21.94742 C 176.030197 27.391104 179.319901 31.816544 185.076889 31.816544 C 187.426682 31.816544 189.228195 31.07246 190.520584 29.270952 L 190.520584 30.994122 C 190.520584 34.166351 188.01413 34.949615 185.233536 34.949615 C 182.687927 34.949615 179.985672 34.283836 178.37999 33.500572 L 178.37999 38.591793 C 180.533951 39.453377 182.962067 40.040821 185.625183 40.040821 C 190.912201 40.040821 196.238403 37.73019 196.238403 31.385761 L 196.238403 12.626579 L 191.108017 12.626579 L 190.7164 14.545568 C 189.463165 12.900721 187.27002 12.234938 185.037735 12.234938 C 179.319901 12.234938 176.030197 16.503736 176.030197 21.94742 Z M 181.904663 21.94742 C 181.904663 19.010187 183.667007 17.052019 186.447601 17.052019 C 189.149857 17.052019 190.912201 18.892687 190.912201 21.94742 C 190.912201 25.041315 189.149857 26.999481 186.447601 26.999481 C 183.667007 26.999481 181.904663 24.884672 181.904663 21.94742 Z M 153.198044 12.626579 L 153.198044 32.208183 L 158.915863 32.208183 L 158.915863 21.124996 C 158.915863 18.501064 161.03067 17.052019 163.067154 17.052019 C 165.064499 17.052019 166.513535 18.501064 166.513535 21.124996 L 166.513535 32.208183 L 172.231354 32.208183 L 172.231354 20.772533 C 172.231354 16.229595 169.724899 12.234938 164.868668 12.234938 C 162.479721 12.234938 160.208252 13.214022 158.720047 15.093868 L 158.32843 12.626579 Z M 141.840714 32.208183 L 147.558533 32.208183 L 147.558533 12.626579 L 141.840714 12.626579 Z M 141.684052 6.634613 C 141.684052 8.514439 142.819794 9.650166 144.699615 9.650166 C 146.579453 9.650166 147.715195 8.514439 147.715195 6.634613 C 147.715195 4.754765 146.579453 3.619038 144.699615 3.619038 C 142.819794 3.619038 141.684052 4.754765 141.684052 6.634613 Z M 125.000534 32.599827 C 127.350319 32.599827 129.38681 31.855724 130.679199 30.054214 L 131.070816 32.208183 L 136.201202 32.208183 L 136.201202 3.619038 L 130.483368 3.619038 L 130.483368 14.545568 C 129.230148 12.900721 127.232826 12.234938 125.000534 12.234938 C 119.282684 12.234938 115.992989 16.699556 115.992989 22.417381 C 115.992989 28.096046 119.243523 32.599827 125.000534 32.599827 Z M 121.867462 22.417381 C 121.867462 19.206009 123.629807 17.052019 126.4104 17.052019 C 129.112656 17.052019 130.875 19.049347 130.875 22.417381 C 130.875 25.785416 129.112656 27.782745 126.4104 27.782745 C 123.629807 27.782745 121.867462 25.628757 121.867462 22.417381 Z M 94.139908 26.68618 C 94.139908 30.093376 96.724686 32.599827 100.680168 32.599827 C 103.499916 32.599827 106.006371 31.307442 106.672134 29.466755 L 107.063774 32.208183 L 112.194153 32.208183 L 112.194153 19.519308 C 112.194153 15.054689 108.591141 12.234938 103.617409 12.234938 C 98.408707 12.234938 95.118996 15.328833 94.88401 19.284328 L 100.131882 19.284328 C 100.210213 17.639462 101.228455 16.229595 103.421593 16.229595 C 105.301422 16.229595 106.476334 17.287001 106.476334 18.931849 L 106.476334 20.772533 L 101.34594 20.772533 C 97.037987 20.772533 94.139908 23.083164 94.139908 26.68618 Z M 100.014397 26.52952 C 100.014397 25.197973 100.993477 24.218891 102.638329 24.218891 L 106.476334 24.218891 C 106.437149 26.68618 104.909798 28.644329 102.481674 28.644329 C 100.875984 28.644329 100.014397 27.782745 100.014397 26.52952 Z M 72.247681 22.378222 C 72.247681 28.448509 76.203156 32.599827 82.234291 32.599827 C 87.364677 32.599827 91.241837 29.623413 91.790115 25.197973 L 86.072289 25.197973 C 85.75898 26.803661 84.270782 27.900227 82.351784 27.900227 C 79.923668 27.900227 78.200485 26.216219 77.808853 23.553108 L 91.515976 23.553108 C 91.633469 22.769844 91.67263 22.10408 91.67263 21.516638 C 91.67263 15.916292 87.991287 12.234938 82.273453 12.234938 C 76.320648 12.234938 72.247681 16.229595 72.247681 22.378222 Z M 82.351784 16.542896 C 84.388275 16.542896 85.837311 17.796122 86.033127 19.636791 L 78.161316 19.636791 C 78.866257 17.717802 80.393623 16.542896 82.351784 16.542896 Z M 53.99762 12.626579 L 53.99762 32.208183 L 59.715443 32.208183 L 59.715443 21.124996 C 59.715443 19.245169 60.381218 17.247839 62.456875 17.247839 C 64.140892 17.247839 64.610847 18.618546 64.610847 20.067593 C 64.610847 20.380894 64.610847 20.615875 64.571686 20.929176 L 70.289513 20.929176 C 70.328682 20.498394 70.367844 19.910931 70.367844 19.36265 C 70.367844 15.877134 68.801315 12.234938 64.610847 12.234938 C 62.496037 12.234938 60.77285 13.135702 59.519634 15.093868 L 59.128002 12.626579 Z"/>
        <g id="Group-copy-2">
            <path id="Rounded-Rectangle" fill="#000000" fill-rule="evenodd" stroke="none" d="M 4.279537 41.998989 C 2.468101 41.998989 1 40.530888 1 38.719452 L 1 4.279537 C 1 2.46809 2.468101 1 4.279537 1 L 38.719452 1 C 40.530899 1 41.998989 2.46809 41.998989 4.279537 L 41.998989 38.719452 C 41.998989 40.530888 40.530899 41.998989 38.719452 41.998989 L 4.279537 41.998989 Z M 5.099421 37.899567 L 37.899567 37.899567 L 37.899567 36.258606 L 5.099421 36.258606 L 5.099421 37.899567 Z M 5.099421 32.732864 L 37.899567 32.732864 L 37.899567 31.093094 L 5.099421 31.093094 L 5.099421 32.732864 Z M 5.099421 27.567354 L 37.899567 27.567354 L 37.899567 25.927586 L 5.099421 25.927586 L 5.099421 27.567354 Z M 25.598915 22.319378 L 37.899567 22.319378 L 37.899567 20.679609 L 25.598915 20.679609 L 25.598915 22.319378 Z M 9.102033 22.307426 C 9.271341 22.30146 9.43924 22.248787 9.586076 22.152056 L 21.054892 14.482672 C 21.331457 14.311493 21.499304 14.009554 21.499495 13.684301 C 21.499685 13.359047 21.331257 13.056236 21.054892 12.884735 L 9.595637 5.23806 C 9.302199 5.044254 8.924751 5.031456 8.61799 5.2034 C 8.311231 5.375347 8.126541 5.704094 8.138729 6.055553 L 8.130363 21.334562 C 8.117762 21.686007 8.301871 22.014408 8.608429 22.186714 C 8.761711 22.272867 8.932725 22.313393 9.102033 22.307426 Z M 25.598915 17.15387 L 37.899567 17.15387 L 37.899567 15.514101 L 25.598915 15.514101 L 25.598915 17.15387 Z M 25.598915 11.987165 L 37.899567 11.987165 L 37.899567 10.347397 L 25.598915 10.347397 L 25.598915 11.987165 Z M 25.598915 6.740383 L 37.899567 6.740383 L 37.899567 5.099422 L 25.598915 5.099422 L 25.598915 6.740383 Z"/>
        </g>
    </g>
</svg>
